# xmcd
#
# Track frame offsets: 
#        150
#        19781
#        38007
#        58978
#        72542
#        87313
#        102553
#        119358
#        137991
#        151556
#        165706
#        197273
#
# Disc length: 3167 seconds
#
# Revision: 2
# Processed by: cddbd v1.5.2PL0 Copyright (c) Steve Scherf et al.
# Submitted via: ExactAudioCopy v1.0b1
#
DISCID=a10c5d0c
DTITLE=Pete Murray - Feeler
DYEAR=2004
DGENRE=Soul
TTITLE0=Feeler
TTITLE1=Bail Me Out
TTITLE2=So Beautiful
TTITLE3=Lines
TTITLE4=Freedom
TTITLE5=Please
TTITLE6=Fall Your Way
TTITLE7=My Time
TTITLE8=Tonic
TTITLE9=No More
TTITLE10=Ten Ft Tall
TTITLE11=Data Track
EXTD=
EXTT0=
EXTT1=
EXTT2=
EXTT3=
EXTT4=
EXTT5=
EXTT6=
EXTT7=
EXTT8=
EXTT9=
EXTT10=
EXTT11=
PLAYORDER=
